<svg width="223" height="81" viewBox="0 0 223 81" fill="none" xmlns="http://www.w3.org/2000/svg">
<g filter="url(#filter0_d_1_2)">
<path d="M32 57.375L45.5 70.875M45.5 70.875L59 57.375M45.5 70.875V40.5M75.47 61.0538C78.4042 58.9904 80.6046 56.0458 81.7518 52.6471C82.8991 49.2485 82.9335 45.5727 81.8501 42.1532C80.7667 38.7336 78.6218 35.7483 75.7267 33.6304C72.8317 31.5125 69.3371 30.3722 65.75 30.375H61.4975C60.4824 26.4191 58.5832 22.745 55.9427 19.6293C53.3022 16.5136 49.9892 14.0375 46.2533 12.3874C42.5174 10.7374 38.4559 9.95635 34.3744 10.1031C30.293 10.2499 26.298 11.3207 22.6902 13.2348C19.0825 15.149 15.956 17.8566 13.5461 21.1539C11.1363 24.4512 9.5058 28.2523 8.77751 32.2709C8.04921 36.2895 8.24206 40.421 9.34153 44.3543C10.441 48.2876 12.4185 51.9203 15.125 54.9788" stroke="#900B09" stroke-width="4" stroke-linecap="round" stroke-linejoin="round"/>
</g>
<g filter="url(#filter1_b_1_2)">
<path d="M113.676 30.838L113.529 53.1735L109.049 53.1441L109.144 38.6165L103.065 53.1049L99.6733 53.0826L93.7527 38.5154L93.6574 53.0431L89.1775 53.0137L89.3241 30.6782L94.412 30.7116L101.407 47.3659L108.62 30.8048L113.676 30.838ZM135.034 35.5863L123.887 61.6257L119.119 61.5944L123.017 52.7878L116.026 35.4616L121.05 35.4945L125.545 47.9083L130.266 35.555L135.034 35.5863ZM145.287 31.0455C147.634 31.0609 149.689 31.533 151.454 32.462C153.24 33.3911 154.607 34.7121 155.556 36.425C156.526 38.1167 157.004 40.0826 156.989 42.3225C156.975 44.5625 156.471 46.5219 155.479 48.2007C154.508 49.8584 153.123 51.14 151.325 52.0456C149.549 52.9513 147.487 53.3964 145.141 53.381L137.333 53.3298L137.479 30.9942L145.287 31.0455ZM145.006 49.572C147.352 49.5874 149.17 48.9593 150.458 47.6878C151.746 46.4162 152.398 44.6178 152.413 42.2925C152.429 39.9672 151.801 38.1497 150.529 36.84C149.258 35.509 147.449 34.8357 145.102 34.8203L141.934 34.7996L141.838 49.5512L145.006 49.572ZM164.848 38.534C165.43 37.5991 166.182 36.8681 167.102 36.3408C168.044 35.8136 169.113 35.5539 170.308 35.5618L170.277 40.2657L169.093 40.2579C167.685 40.2487 166.616 40.5723 165.886 41.2289C165.178 41.8856 164.818 43.0352 164.808 44.6779L164.75 53.5097L160.27 53.4803L160.386 35.7527L164.866 35.7821L164.848 38.534ZM175.609 33.7405C174.82 33.7353 174.16 33.4857 173.63 32.9915C173.121 32.4762 172.869 31.8452 172.874 31.0985C172.879 30.3519 173.139 29.7349 173.655 29.2476C174.191 28.7391 174.854 28.4875 175.644 28.4926C176.433 28.4978 177.082 28.7581 177.59 29.2734C178.121 29.7676 178.383 30.388 178.378 31.1346C178.373 31.8813 178.103 32.5089 177.566 33.0173C177.051 33.5046 176.398 33.7457 175.609 33.7405ZM177.803 35.867L177.687 53.5946L173.207 53.5652L173.323 35.8376L177.803 35.867ZM189.532 49.5442L194.101 35.9739L198.869 36.0052L192.193 53.6898L186.753 53.6541L180.341 35.8836L185.141 35.9151L189.532 49.5442ZM217.809 44.6097C217.805 45.2497 217.759 45.8254 217.67 46.3368L204.71 46.2518C204.808 47.5324 205.25 48.538 206.034 49.2685C206.819 49.999 207.787 50.368 208.939 50.3756C210.603 50.3865 211.792 49.6796 212.505 48.255L217.337 48.2867C216.814 49.9899 215.823 51.3915 214.365 52.4913C212.908 53.5697 211.123 54.102 209.011 54.0882C207.304 54.077 205.771 53.6936 204.41 52.9379C203.071 52.1611 202.022 51.0769 201.263 49.6852C200.526 48.2937 200.163 46.6913 200.175 44.878C200.187 43.0433 200.571 41.4352 201.327 40.0534C202.082 38.6717 203.135 37.6119 204.484 36.8741C205.833 36.1362 207.382 35.7731 209.131 35.7846C210.816 35.7956 212.318 36.1681 213.636 36.9021C214.975 37.6363 216.003 38.6777 216.719 40.0264C217.457 41.354 217.821 42.8817 217.809 44.6097ZM213.178 43.2993C213.164 42.1472 212.754 41.2271 211.948 40.5391C211.142 39.8298 210.152 39.4713 208.979 39.4636C207.869 39.4564 206.929 39.7915 206.156 40.4691C205.405 41.1256 204.94 42.0505 204.762 43.244L213.178 43.2993Z" fill="#FFF7F7"/>
</g>
<defs>
<filter id="filter0_d_1_2" x="1" y="0" width="89" height="89" filterUnits="userSpaceOnUse" color-interpolation-filters="sRGB">
<feFlood flood-opacity="0" result="BackgroundImageFix"/>
<feColorMatrix in="SourceAlpha" type="matrix" values="0 0 0 0 0 0 0 0 0 0 0 0 0 0 0 0 0 0 127 0" result="hardAlpha"/>
<feOffset dy="4"/>
<feGaussianBlur stdDeviation="2"/>
<feComposite in2="hardAlpha" operator="out"/>
<feColorMatrix type="matrix" values="0 0 0 0 0 0 0 0 0 0 0 0 0 0 0 0 0 0 0.25 0"/>
<feBlend mode="normal" in2="BackgroundImageFix" result="effect1_dropShadow_1_2"/>
<feBlend mode="normal" in="SourceGraphic" in2="effect1_dropShadow_1_2" result="shape"/>
</filter>
<filter id="filter1_b_1_2" x="85.1225" y="23.9263" width="136.791" height="42.315" filterUnits="userSpaceOnUse" color-interpolation-filters="sRGB">
<feFlood flood-opacity="0" result="BackgroundImageFix"/>
<feGaussianBlur in="BackgroundImageFix" stdDeviation="2"/>
<feComposite in2="SourceAlpha" operator="in" result="effect1_backgroundBlur_1_2"/>
<feBlend mode="normal" in="SourceGraphic" in2="effect1_backgroundBlur_1_2" result="shape"/>
</filter>
</defs>
</svg>
